<?xml version="1.0" encoding="UTF-8" ?>
<!DOCTYPE svg PUBLIC "-//W3C//DTD SVG 1.1//EN" "http://www.w3.org/Graphics/SVG/1.1/DTD/svg11.dtd">
<svg width="166pt" height="235pt" viewBox="0 0 166 235" version="1.1" xmlns="http://www.w3.org/2000/svg">
<g id="#ffffffff">
</g>
<g id="#999999ff">
<path fill="#999999" opacity="1.00" d=" M 136.23 6.21 C 142.82 5.14 149.95 7.46 154.43 12.46 C 158.29 16.68 160.07 22.89 158.55 28.46 C 157.26 33.73 153.40 38.22 148.54 40.56 C 141.40 44.13 132.16 43.08 126.13 37.80 C 121.13 33.60 118.53 26.50 120.31 20.12 C 122.09 12.78 128.83 7.23 136.23 6.21 Z" />
<path fill="#999999" opacity="1.00" d=" M 37.38 79.46 C 53.84 77.65 71.30 86.81 77.80 102.30 C 82.74 113.41 81.03 126.97 73.76 136.67 C 64.29 149.74 46.47 155.44 31.01 151.32 C 19.77 148.56 9.79 140.61 5.07 129.97 C 0.66 120.07 1.24 108.10 6.70 98.72 C 12.93 87.75 24.87 80.51 37.38 79.46 Z" />
<path fill="#999999" opacity="1.00" d=" M 119.77 115.80 C 132.84 115.79 145.92 115.82 158.99 115.79 C 159.27 143.64 147.39 171.08 127.66 190.62 C 105.23 213.48 73.22 225.97 41.33 225.87 C 41.32 213.66 41.37 201.45 41.30 189.24 C 60.83 189.06 80.42 182.22 95.07 169.15 C 110.34 155.92 119.87 136.10 119.77 115.80 Z" />
</g>
</svg>
